<svg xmlns="http://www.w3.org/2000/svg" viewBox="0 0 1280 1024">
  <style>
    .st10,.st7,.st8{fill:#ef2020;stroke:#000;stroke-miterlimit:10}.st10,.st8{fill:#eaea24}.st10{fill:#c919ce}
  </style>
  <path d="M99.8 119.5h872.7V570H88s14.9-450.5 11.8-450.5z" fill="#fff" stroke="#000" stroke-miterlimit="10" id="wall"/>
  <path d="M87.5 567.5v300H974v-295s-886.5-9.3-886.5-5z" opacity=".21" fill="#248e7c" stroke="#000" stroke-miterlimit="10" id="counter"/>
  <g id="textbox">
    <path fill="none" d="M358.7 812.9H651v47.7H358.7z"/>
    <text transform="translate(358.692 829.963)" font-size="24" font-family="MyriadPro-Regular">
      Jonas and Peter are working
    </text>
  </g>
  <ellipse cx="527" cy="701.5" rx="102" ry="91.5" fill="#3045c4" id="animation"/>
  <path fill="#16c122" stroke="#000" stroke-miterlimit="10" d="M825.5 156.5h128v120h-128z" id="queue"/>
  <g id="taps">
    <path class="st7" d="M146.5 481.5h14v86h-14z" id="tap1"/>
    <path class="st7" d="M262.5 481.5h14v86h-14z" id="tap2"/>
    <path class="st7" d="M363.5 481.5h14v86h-14z" id="tap3"/>
    <path class="st7" d="M469.5 480.5h14v86h-14z" id="tap4"/>
    <path class="st7" d="M602.5 481.5h14v86h-14z" id="tap5"/>
    <path class="st7" d="M770.5 482.5h14v86h-14z" id="tap6"/>
    <path class="st7" d="M875.5 482.5h14v86h-14z" id="tap7"/>
  </g>
  <g id="posters">
    <path class="st8" d="M141.5 189.5h57v63h-57z" id="post1"/>
    <path class="st8" d="M223.5 189.5h57v63h-57z" id="post2"/>
    <path class="st8" d="M166.5 282.5h57v63h-57z" id="post3"/>
    <path class="st8" d="M262.5 285.5h57v63h-57z" id="post4"/>
    <path class="st8" d="M311.5 186.5h57v63h-57z" id="post5"/>
    <path class="st8" d="M351.5 276.5h57v63h-57z" id="post6"/>
    <path class="st8" d="M400.5 199.5h57v63h-57z" id="post7"/>
  </g>
  <path fill="#2c302a" stroke="#000" stroke-miterlimit="10" d="M550.5 177.5h125v46h-125z" id="clock"/>
  <g id="servers">
    <ellipse class="st10" cx="716" cy="420.5" rx="22.5" ry="26" id="Jonas"/>
    <ellipse class="st10" cx="508" cy="416.5" rx="22.5" ry="26" id="Martin"/>
    <ellipse class="st10" cx="261" cy="426.5" rx="22.5" ry="26" id="Peter"/>
  </g>
</svg>
